<svg width="80" height="83" viewBox="0 0 80 83" fill="none" xmlns="http://www.w3.org/2000/svg">
<circle cx="40" cy="40" r="40" fill="#1D1D1D" fill-opacity="1"/>
<path d="M56.7891 12.5938C56.7891 12.7656 56.7461 12.8945 56.6602 12.9805C55.7435 13.8971 54.612 14.6419 53.2656 15.2148C51.9479 15.7591 50.6589 16.1458 49.3984 16.375C48.1667 16.6042 46.9349 16.7617 45.7031 16.8477C44.4714 16.9336 43.2396 17.0052 42.0078 17.0625C40.776 17.0911 39.5443 17.1484 38.3125 17.2344C37.0807 17.2917 35.8633 17.4492 34.6602 17.707C34.5169 20.0273 34.1445 22.3047 33.543 24.5391C32.9701 26.7734 32.3112 28.9792 31.5664 31.1562C32.3685 31.1562 33.1562 31.2135 33.9297 31.3281C34.7318 31.4427 35.5339 31.5 36.3359 31.5C37.0521 31.5 37.7539 31.4714 38.4414 31.4141C39.1576 31.3281 39.8594 31.1992 40.5469 31.0273C40.6328 30.9987 40.7617 30.9557 40.9336 30.8984C41.1341 30.8411 41.3203 30.7839 41.4922 30.7266C41.6927 30.6693 41.8646 30.612 42.0078 30.5547C42.1797 30.4974 42.2799 30.4688 42.3086 30.4688C42.4518 30.4688 42.6094 30.569 42.7812 30.7695C42.9531 30.9701 43.0391 31.1276 43.0391 31.2422C43.0391 31.4141 42.9674 31.543 42.8242 31.6289C41.7357 32.3164 40.5039 32.8177 39.1289 33.1328C37.7539 33.4479 36.4362 33.6055 35.1758 33.6055C34.6888 33.6055 34.2161 33.5768 33.7578 33.5195C33.2995 33.4622 32.8268 33.4336 32.3398 33.4336C31.7383 33.4336 31.194 33.4909 30.707 33.6055C29.9622 35.7253 29.1315 37.8021 28.2148 39.8359C27.2982 41.8698 26.3242 43.8893 25.293 45.8945C26.2383 45.8945 27.1693 45.9661 28.0859 46.1094C29.0312 46.2526 29.9622 46.4102 30.8789 46.582C31.7956 46.7253 32.7122 46.8685 33.6289 47.0117C34.5742 47.1549 35.5195 47.2266 36.4648 47.2266C36.8945 47.2266 37.3242 47.2122 37.7539 47.1836C38.1836 47.1549 38.6133 47.0977 39.043 47.0117C40.4466 46.7253 41.6354 46.224 42.6094 45.5078C43.612 44.7917 44.6146 43.9609 45.6172 43.0156C45.7318 42.901 45.8464 42.8438 45.9609 42.8438C46.1328 42.8438 46.2904 42.9297 46.4336 43.1016C46.6055 43.2448 46.6914 43.388 46.6914 43.5312C46.6914 43.6172 46.6628 43.7174 46.6055 43.832C45.3164 45.6367 43.7552 46.9974 41.9219 47.9141C40.0885 48.8307 38.069 49.2891 35.8633 49.2891C34.9753 49.2891 34.1016 49.2318 33.2422 49.1172C32.3828 49.0312 31.5234 48.9167 30.6641 48.7734C29.8047 48.6589 28.9453 48.5443 28.0859 48.4297C27.2266 48.3151 26.3529 48.2578 25.4648 48.2578C25.2357 48.2578 24.9922 48.2578 24.7344 48.2578C24.4766 48.2578 24.2331 48.2721 24.0039 48.3008C23.918 48.4727 23.8034 48.6875 23.6602 48.9453C23.5456 49.2031 23.3737 49.332 23.1445 49.332C22.944 49.332 22.7578 49.2747 22.5859 49.1602C22.4427 49.0456 22.3711 48.888 22.3711 48.6875C22.3711 48.6016 22.3997 48.5299 22.457 48.4727C21.9701 48.5586 21.526 48.6445 21.125 48.7305C20.724 48.8451 20.3372 48.9596 19.9648 49.0742C19.6211 49.2174 19.263 49.3607 18.8906 49.5039C18.5182 49.6758 18.1029 49.8477 17.6445 50.0195H17.5156C17.3151 50.0195 17.1432 49.9336 17 49.7617C16.8568 49.6185 16.7852 49.4466 16.7852 49.2461C16.7852 49.1029 16.8281 48.9883 16.9141 48.9023C17.7448 47.9857 18.7474 47.3125 19.9219 46.8828C21.125 46.4245 22.3281 46.1237 23.5312 45.9805C24.362 44.0612 25.1641 42.1419 25.9375 40.2227C26.7109 38.2747 27.4557 36.3125 28.1719 34.3359C28.1146 34.3646 27.9857 34.4219 27.7852 34.5078C27.5846 34.5938 27.3841 34.694 27.1836 34.8086C26.9831 34.8945 26.7969 34.9805 26.625 35.0664C26.4531 35.1237 26.3529 35.1523 26.3242 35.1523C26.1237 35.1523 25.9375 35.0664 25.7656 34.8945C25.5938 34.694 25.5078 34.5078 25.5078 34.3359V34.25C25.5078 34.2214 25.5221 34.207 25.5508 34.207C25.8945 33.5482 26.3958 33.0039 27.0547 32.5742C27.7422 32.1159 28.4297 31.7721 29.1172 31.543C29.862 29.3086 30.5065 27.0599 31.0508 24.7969C31.5951 22.5339 32.2539 20.2995 33.0273 18.0938C31.9388 18.4089 30.8932 18.8529 29.8906 19.4258C28.9167 19.9701 28.0573 20.6719 27.3125 21.5312C27.0833 21.7604 26.8971 22.0039 26.7539 22.2617C26.6107 22.5195 26.4388 22.763 26.2383 22.9922C26.1523 23.1354 26.0091 23.207 25.8086 23.207C25.6654 23.207 25.5078 23.1497 25.3359 23.0352C25.1641 22.9206 25.0781 22.763 25.0781 22.5625C25.0781 22.4766 25.0924 22.4193 25.1211 22.3906C25.8945 20.8438 26.8828 19.5977 28.0859 18.6523C29.3177 17.6784 30.6641 16.9336 32.125 16.418C33.5859 15.8737 35.1185 15.5013 36.7227 15.3008C38.3555 15.0716 39.9453 14.9141 41.4922 14.8281C44.0703 14.7135 46.5195 14.4701 48.8398 14.0977C51.1602 13.6966 53.5091 12.9661 55.8867 11.9062C55.944 11.8776 56.0156 11.8633 56.1016 11.8633C56.3021 11.8633 56.4596 11.9492 56.5742 12.1211C56.7174 12.2643 56.7891 12.4219 56.7891 12.5938Z" fill="#F9F9F9"/>
<path d="M31.3741 72.9029C31.349 72.6463 31.4435 72.4356 31.6577 72.2708C32.2202 71.8416 32.9036 71.4726 33.7081 71.1637C34.4869 70.8861 35.297 70.6342 36.1383 70.408C36.9825 70.2104 37.828 70.027 38.675 69.8578C39.4962 69.72 40.2604 69.5877 40.9675 69.461C42.1566 69.2584 43.3828 68.9946 44.6463 68.6696C45.9097 68.3447 47.0226 67.8041 47.9848 67.0481C48.0648 66.9827 48.1847 66.8846 48.3446 66.7538C48.5045 66.6231 48.6102 66.5264 48.6617 66.4638C48.9161 66.1223 49.0923 65.7165 49.1902 65.2465C49.2882 64.7764 49.3177 64.3417 49.2787 63.9426C49.1923 63.0588 48.8889 62.3113 48.3687 61.7002C47.8484 61.0891 47.2339 60.5447 46.5252 60.0671C45.8792 59.641 45.2473 59.2134 44.6297 58.7845C43.9836 58.3584 43.3233 57.9336 42.6487 57.5103C41.9428 57.0612 41.2185 56.5708 40.4757 56.0389C39.7329 55.5071 39.043 54.927 38.4059 54.2985C37.7688 53.67 37.2402 52.9733 36.8201 52.2085C36.3714 51.4464 36.1025 50.6092 36.0133 49.6969C35.8962 48.4995 36.0712 47.3455 36.5383 46.2349C37.0082 45.1528 37.5719 44.1479 38.2296 43.2201C39.3704 41.6407 40.7828 40.3369 42.4668 39.3088C44.1223 38.2835 45.9336 37.6747 47.9008 37.4824C49.2693 37.3486 50.6444 37.43 52.0262 37.7267C53.4107 38.0519 54.6708 38.5763 55.8065 39.2999C56.9422 40.0236 57.8951 40.9378 58.6651 42.0426C59.4379 43.1759 59.8981 44.4981 60.0458 46.0091C60.1712 47.2921 60.0457 48.6571 59.669 50.1043C59.2667 51.5827 58.7009 52.8613 57.9717 53.94C57.8173 54.1278 57.6547 54.23 57.4836 54.2467C57.3125 54.2635 57.163 54.2061 57.035 54.0747C56.8813 53.9746 56.7961 53.839 56.7794 53.668C56.7655 53.5254 56.7957 53.3929 56.8701 53.2705C57.4283 52.2086 57.8825 51.1136 58.2327 49.9857C58.5545 48.8605 58.654 47.6707 58.5314 46.4162C58.406 45.1333 58.0236 44.0194 57.3844 43.0745C56.7194 42.1609 55.9116 41.4052 54.9609 40.8073C53.9817 40.2123 52.9052 39.7994 51.7313 39.5688C50.5575 39.3382 49.3861 39.28 48.2172 39.3943C46.4211 39.5698 44.8608 40.0965 43.5362 40.9744C42.2145 41.8807 41.0176 43.0339 39.9456 44.4339C39.3881 45.208 38.9331 46.0008 38.5807 46.8123C38.2283 47.6239 38.1009 48.5286 38.1985 49.5265C38.2709 50.2677 38.4776 50.9095 38.8184 51.4519C39.1593 51.9942 39.6127 52.5111 40.1789 53.0026C40.7735 53.4914 41.3782 53.9359 41.993 54.3364C42.5821 54.7681 43.1997 55.197 43.8458 55.6231C44.4578 55.995 45.1609 56.4156 45.9551 56.8848C46.7208 57.3568 47.4608 57.8601 48.175 58.3948C48.8921 58.9579 49.5406 59.5565 50.1207 60.1905C50.7036 60.8531 51.1025 61.5481 51.3175 62.2754C51.3968 62.4979 51.4619 62.7218 51.5127 62.9471C51.535 63.1752 51.5573 63.4032 51.5796 63.6313C51.6716 64.5721 51.597 65.4285 51.3558 66.2004C51.1147 66.9723 50.7484 67.6414 50.2568 68.2075C49.7396 68.8049 49.1271 69.3109 48.4193 69.7255C47.6829 70.1429 46.8812 70.4803 46.0141 70.7378C45.2298 70.9584 44.4385 71.1077 43.6402 71.1857C42.8447 71.2923 42.0506 71.4131 41.2579 71.5481C39.7267 71.7842 38.2084 72.0045 36.703 72.2093C35.1975 72.414 33.7272 72.8312 32.2921 73.4608C32.2636 73.4636 32.2351 73.4664 32.2066 73.4691C32.1809 73.5004 32.1395 73.5189 32.0825 73.5245C31.9114 73.5412 31.7619 73.4838 31.6339 73.3524C31.4774 73.2238 31.3908 73.074 31.3741 72.9029Z" fill="#F9F9F9"/>
</svg>
